<?xml version="1.0" standalone="no"?>
<!DOCTYPE svg PUBLIC "-//W3C//DTD SVG 20010904//EN"
 "http://www.w3.org/TR/2001/REC-SVG-20010904/DTD/svg10.dtd">
<svg version="1.0" xmlns="http://www.w3.org/2000/svg"
 width="300.000000pt" height="300.000000pt" viewBox="0 0 300.000000 300.000000"
 preserveAspectRatio="xMidYMid meet">
<metadata>
Created by potrace 1.10, written by Peter Selinger 2001-2011
</metadata>
<g transform="translate(000.000000,300.000000) scale(0.1250000,-0.1250000)"
fill="#000000" stroke="none">
<path d="M998 2213 c-7 -15 -12 -66 -12 -113 -1 -102 22 -161 87 -229 65 -67
98 -85 268 -145 25 -9 60 -27 77 -40 l32 -23 -24 -17 c-24 -15 -26 -15 -51 9
-26 23 -129 55 -141 43 -3 -4 0 -25 7 -48 13 -44 59 -90 90 -90 23 0 24 -13 2
-31 -25 -21 -81 -144 -94 -207 -15 -72 -7 -213 16 -277 9 -27 31 -75 48 -105
l32 -55 6 46 c4 25 14 59 22 75 23 44 96 109 153 137 67 34 101 75 110 133 11
76 35 90 141 85 54 -3 78 11 104 60 36 72 27 87 -81 136 -99 44 -177 105 -157
121 23 18 82 45 150 68 39 13 89 35 112 48 55 33 122 107 147 164 39 88 31
247 -14 276 -26 16 -32 1 -18 -48 7 -25 9 -53 5 -63 -6 -16 -8 -16 -26 6 -36
44 -81 72 -96 60 -11 -9 -6 -20 26 -54 68 -74 74 -151 17 -228 -24 -33 -99
-83 -141 -93 l-30 -7 32 36 c18 20 35 53 39 72 8 46 -6 99 -29 103 -14 3 -17
-5 -17 -51 0 -40 -6 -61 -21 -81 -26 -33 -39 -33 -39 -2 0 41 -18 78 -37 74
-14 -2 -16 -13 -14 -60 4 -81 -46 -165 -122 -204 -27 -15 -28 -14 -44 23 -23
54 -22 159 2 200 15 25 16 36 7 45 -17 17 -49 -15 -64 -64 -6 -21 -14 -38 -18
-38 -16 0 -38 66 -33 98 4 25 2 32 -11 32 -19 0 -36 -30 -36 -67 0 -33 40
-122 63 -142 34 -28 15 -28 -51 -1 -89 36 -104 46 -131 86 -19 28 -22 43 -20
96 3 51 1 63 -11 63 -25 0 -46 -77 -34 -125 6 -22 8 -40 4 -40 -4 0 -26 18
-48 39 -74 72 -77 164 -7 232 38 37 43 54 20 63 -10 4 -32 -10 -61 -39 -24
-25 -47 -45 -50 -45 -5 0 -1 54 8 105 5 32 -30 31 -44 -2z m754 -402 c19 -23
10 -35 -36 -47 -26 -6 -28 -5 -22 12 5 10 11 27 13 37 7 22 25 22 45 -2z
m-277 -98 c20 -46 13 -53 -19 -17 -17 21 -21 32 -14 42 15 17 16 16 33 -25z
m-87 -120 c2 -7 -4 -13 -14 -13 -23 0 -86 49 -78 61 7 11 86 -30 92 -48z m232
17 c11 -11 20 -24 20 -29 0 -5 36 -23 80 -42 44 -18 80 -39 80 -46 0 -7 9 -18
20 -25 25 -16 25 -30 3 -50 -14 -12 -30 -14 -73 -8 -91 13 -252 -11 -325 -47
-64 -32 -145 -131 -145 -178 0 -8 -4 -15 -8 -15 -5 0 -5 25 -1 55 8 63 47 135
88 166 25 18 29 29 33 80 5 66 24 100 78 137 44 29 121 31 150 2z m-14 -272
c-8 -18 -19 -52 -25 -74 -11 -41 -36 -64 -114 -104 -36 -18 -124 -106 -133
-132 -9 -28 -25 -17 -41 28 -20 57 -19 89 6 121 12 15 35 47 51 70 16 23 49
53 72 67 44 26 134 54 175 55 22 1 22 0 9 -31z"/>
<path d="M1499 1550 l-24 -20 26 6 c15 3 30 1 33 -5 10 -15 46 -14 46 2 0 38
-46 47 -81 17z"/>
<path d="M1660 1195 c-17 -43 -37 -62 -111 -105 -105 -62 -159 -136 -159 -217
0 -26 29 -103 39 -103 3 0 6 21 7 48 0 26 10 65 22 88 20 39 105 124 123 124
5 0 9 -13 9 -29 0 -21 -8 -36 -29 -50 -39 -28 -81 -114 -81 -165 0 -23 9 -59
19 -81 l18 -40 23 45 c55 109 147 183 274 222 60 18 68 23 52 32 -89 52 -155
130 -180 215 l-14 46 -12 -30z m25 -112 c10 -14 35 -45 56 -68 44 -47 44 -46
-35 -86 -26 -13 -78 -52 -114 -87 -36 -34 -67 -60 -70 -58 -14 15 14 82 53
127 50 55 58 98 28 132 -17 18 -17 20 12 43 38 30 49 30 70 -3z"/>
</g>
</svg>
